<svg width="228" height="47" viewBox="0 0 228 47" fill="none" xmlns="http://www.w3.org/2000/svg">
<path d="M51.3122 10.0821C48.1819 10.0821 45.6165 11.1309 43.6161 13.2282V10.4693H37.3235V46.4336H43.6161V33.2675C45.6165 35.4301 48.1819 36.5107 51.3122 36.5107C54.8291 36.5107 57.8302 35.2362 60.3155 32.6868C62.8001 30.1381 64.0426 27.0075 64.0426 23.2962C64.0426 19.7143 62.7917 16.6167 60.2912 14.0027C57.7902 11.3888 54.7975 10.0821 51.3122 10.0821ZM55.9832 28.6208C54.547 30.1055 52.7802 30.8474 50.6831 30.8474C48.65 30.8474 46.8991 30.0969 45.4311 28.5966C43.9624 27.0961 43.2288 25.3294 43.2288 23.2962C43.2288 21.2631 43.9624 19.4967 45.4311 17.996C46.8991 16.4955 48.65 15.7453 50.6831 15.7453C52.7802 15.7453 54.547 16.488 55.9832 17.972C57.4187 19.4566 58.1372 21.2315 58.1372 23.2962C58.1372 25.362 57.4187 27.1369 55.9832 28.6208ZM83.3228 10.3722V17.1007C77.5771 15.2207 73.7388 18.7151 73.7388 23.0542V36.1234H67.4462V10.4693H73.7388V14.2929C75.4673 11.1167 78.255 9.26843 83.3228 10.3722ZM98.1483 10.0335C94.5339 10.0335 91.436 11.3247 88.8547 13.906C86.2726 16.488 84.9823 19.6015 84.9823 23.248C84.9823 26.8621 86.2727 29.9761 88.8547 32.5899C91.436 35.2036 94.5339 36.5106 98.1483 36.5106C101.795 36.5106 104.908 35.212 107.49 32.6141C110.072 30.0168 111.363 26.8947 111.363 23.248C111.363 19.6341 110.072 16.528 107.49 13.9301C104.908 11.3328 101.795 10.0335 98.1483 10.0335ZM103.376 28.5481C101.956 30.0169 100.213 30.7507 98.1484 30.7507C96.1154 30.7507 94.3887 30.0169 92.9691 28.5481C91.5487 27.0802 90.8394 25.3134 90.8394 23.248C90.8394 21.2148 91.5487 19.4648 92.9691 17.996C94.3887 16.528 96.1154 15.7935 98.1484 15.7935C100.213 15.7935 101.956 16.5196 103.376 17.972C104.796 19.424 105.506 21.1834 105.506 23.248C105.506 25.3127 104.796 27.0802 103.376 28.5481ZM133.757 26.5576L138.908 29.5318C137.937 31.4038 136.575 32.9675 134.807 34.2114C132.628 35.7447 130.167 36.5106 127.425 36.5106C123.746 36.5106 120.624 35.212 118.059 32.6141C115.493 30.0168 114.211 26.9107 114.211 23.2961C114.211 19.5855 115.501 16.4395 118.083 13.8574C120.664 11.3088 123.778 10.0335 127.425 10.0335C130.136 10.0335 132.587 10.8003 134.782 12.3327C136.557 13.5728 137.924 15.1407 138.897 17.0249L133.759 19.9914C133.178 18.7077 132.334 17.6711 131.225 16.8828C130.111 16.0922 128.845 15.6967 127.425 15.6967C125.392 15.6967 123.665 16.4469 122.246 17.9475C120.825 19.4481 120.116 21.2315 120.116 23.2962C120.116 25.362 120.825 27.1369 122.246 28.6208C123.665 30.1055 125.392 30.8474 127.425 30.8474C128.877 30.8474 130.16 30.4527 131.273 29.6615C132.381 28.8749 133.208 27.8397 133.757 26.5576ZM154.668 30.9442C152.893 30.9442 151.376 30.4768 150.118 29.5406C148.859 28.6048 148.052 27.2981 147.698 25.6196H167.64C167.801 24.9101 167.882 24.1675 167.882 23.3933C167.882 22.5542 167.785 21.6829 167.592 20.7794C167.011 17.714 165.502 15.1569 163.066 13.1073C160.629 11.0582 157.83 10.0335 154.668 10.0335C151.021 10.0335 147.907 11.3088 145.326 13.8574C142.744 16.4395 141.454 19.5855 141.454 23.2961C141.454 26.9107 142.736 30.0168 145.302 32.6141C147.867 35.212 150.989 36.5106 154.668 36.5106C157.12 36.5106 159.5 35.898 161.808 34.6713C163.602 33.7175 164.996 32.5159 166.001 31.0736L161.218 28.3126C159.512 30.0657 157.33 30.9442 154.668 30.9442ZM150.094 17.1007C151.336 16.1008 152.844 15.6001 154.62 15.6001C156.394 15.6001 157.894 16.1007 159.121 17.1007C160.347 18.1013 161.138 19.3436 161.493 20.8276H147.698C148.052 19.3436 148.851 18.1013 150.094 17.1007ZM191.138 13.2768C189.072 11.1149 186.507 10.0336 183.442 10.0336C179.924 10.0336 176.923 11.3088 174.439 13.8575C171.953 16.4395 170.711 19.5856 170.711 23.2962C170.711 26.8781 171.962 29.9761 174.463 32.59C176.963 35.2036 179.957 36.5107 183.442 36.5107C186.54 36.5107 189.105 35.4622 191.138 33.3643V36.1234H197.431V0.124817H191.138L191.138 13.2768ZM189.323 28.5722C187.854 30.0568 186.104 30.7988 184.071 30.7988C181.973 30.7988 180.206 30.0655 178.771 28.5966C177.334 27.1287 176.617 25.362 176.617 23.2962C176.617 21.2315 177.334 19.4566 178.771 17.972C180.206 16.488 181.973 15.7453 184.071 15.7453C186.104 15.7453 187.854 16.4955 189.323 17.996C190.791 19.4967 191.525 21.2634 191.525 23.2962C191.525 25.329 190.791 27.0883 189.323 28.5722ZM220.664 28.282C218.953 30.0569 216.759 30.9441 214.081 30.9441C212.306 30.9441 210.79 30.4768 209.531 29.5406C208.273 28.6047 207.466 27.298 207.111 25.6195H227.054C227.215 24.9101 227.296 24.1675 227.296 23.3932C227.296 22.5541 227.199 21.6829 227.005 20.7793C226.424 17.7139 224.916 15.1568 222.479 13.1072C220.043 11.0581 217.243 10.0334 214.081 10.0334C210.434 10.0334 207.321 11.3087 204.739 13.8574C202.157 16.4394 200.867 19.5855 200.867 23.2961C200.867 26.9106 202.15 30.0168 204.715 32.614C207.28 35.212 210.403 36.5106 214.081 36.5106C216.533 36.5106 218.913 35.8979 221.221 34.6713C223.032 33.7089 224.434 32.4941 225.44 31.0347L220.679 28.2859L220.664 28.282ZM209.507 17.1007C210.749 16.1008 212.258 15.6001 214.033 15.6001C215.807 15.6001 217.308 16.1007 218.534 17.1007C219.76 18.1013 220.551 19.3436 220.906 20.8276H207.111C207.466 19.3436 208.264 18.1013 209.507 17.1007Z" fill="#E3B300"/>
<path d="M0 39.562H14.5801L23.6055 30.5438L16.3208 23.2618L0 39.562Z" fill="url(#paint0_linear_59690_934)"/>
<path d="M30.8937 23.2628L14.6596 7.02911H0.0823975L16.3208 23.2618L23.6055 30.5438L23.6061 30.5443L30.8937 23.2628Z" fill="url(#paint1_linear_59690_934)"/>
<defs>
<linearGradient id="paint0_linear_59690_934" x1="24.3722" y1="22.6365" x2="8.76601" y2="37.9868" gradientUnits="userSpaceOnUse">
<stop/>
<stop offset="0.024" stop-color="#0D0A00"/>
<stop offset="0.1229" stop-color="#3E3100"/>
<stop offset="0.2268" stop-color="#6A5400"/>
<stop offset="0.3339" stop-color="#8F7100"/>
<stop offset="0.4451" stop-color="#AE8900"/>
<stop offset="0.5617" stop-color="#C59B00"/>
<stop offset="0.6861" stop-color="#D6A800"/>
<stop offset="0.8235" stop-color="#DFB000"/>
<stop offset="1" stop-color="#E3B300"/>
</linearGradient>
<linearGradient id="paint1_linear_59690_934" x1="38.8498" y1="36.7693" x2="17.4885" y2="17.287" gradientUnits="userSpaceOnUse">
<stop/>
<stop offset="0.1087" stop-color="#342900"/>
<stop offset="0.2212" stop-color="#624D00"/>
<stop offset="0.3379" stop-color="#896C00"/>
<stop offset="0.4572" stop-color="#AA8600"/>
<stop offset="0.58" stop-color="#C39900"/>
<stop offset="0.7075" stop-color="#D4A700"/>
<stop offset="0.843" stop-color="#DFB000"/>
<stop offset="1" stop-color="#E3B300"/>
</linearGradient>
</defs>
</svg>
